<?xml version="1.0" standalone="no"?>
<!DOCTYPE svg PUBLIC "-//W3C//DTD SVG 20010904//EN"
 "http://www.w3.org/TR/2001/REC-SVG-20010904/DTD/svg10.dtd">
<svg version="1.0" xmlns="http://www.w3.org/2000/svg"
 width="100.000000pt" height="40.000000pt" viewBox="0 0 100.000000 40.000000"
 preserveAspectRatio="xMidYMid meet">

<g transform="translate(0.000000,40.000000) scale(0.100000,-0.100000)"
fill="#000000" stroke="none">
<path d="M203 321 c-3 -14 -15 -21 -37 -23 -27 -3 -31 -7 -31 -33 0 -28 4 -31
50 -42 39 -10 51 -10 57 0 6 9 12 9 27 0 17 -11 29 -10 68 5 40 14 48 22 48
42 0 21 -6 26 -31 28 -22 2 -34 9 -37 23 -4 16 -14 19 -57 19 -43 0 -53 -3
-57 -19z m97 -11 c0 -5 -18 -10 -40 -10 -22 0 -40 5 -40 10 0 6 18 10 40 10
22 0 40 -4 40 -10z"/>
<path d="M508 283 c-3 -44 -5 -48 -33 -54 -23 -5 -26 -7 -13 -13 9 -4 27 -6
40 -4 21 3 23 9 26 61 2 33 -1 57 -7 57 -5 0 -11 -21 -13 -47z"/>
<path d="M567 312 c-21 -23 -22 -66 -1 -86 36 -37 104 -7 104 46 0 51 -69 78
-103 40z m68 -42 c0 -28 -4 -36 -22 -38 -28 -4 -44 25 -32 56 6 17 15 22 31
20 19 -2 23 -9 23 -38z"/>
<path d="M690 269 l0 -60 43 3 42 3 0 45 c1 65 -2 70 -46 70 l-39 0 0 -61z
m60 26 c0 -8 -9 -15 -20 -15 -11 0 -20 7 -20 15 0 8 9 15 20 15 11 0 20 -7 20
-15z m5 -50 c0 -5 -10 -11 -22 -13 -16 -2 -23 2 -23 13 0 11 7 15 23 13 12 -2
22 -7 22 -13z"/>
<path d="M139 213 c-4 -31 -1 -102 5 -111 4 -8 36 -12 82 -12 l74 0 0 56 c0
51 -2 55 -20 49 -11 -4 -35 -2 -53 3 -57 18 -87 23 -88 15z"/>
<path d="M351 211 c-11 -7 -9 -10 8 -16 25 -8 64 3 56 16 -8 11 -46 12 -64 0z"/>
<path d="M322 173 c7 -39 108 -38 108 1 0 12 -6 13 -29 5 -21 -7 -36 -7 -50 0
-27 15 -33 14 -29 -6z"/>
<path d="M467 173 c-14 -13 -6 -42 14 -57 12 -8 18 -19 14 -26 -5 -8 -10 -9
-18 -1 -16 16 -27 13 -20 -5 3 -9 15 -14 32 -12 34 4 41 42 12 58 -27 14 -27
33 -1 25 15 -5 18 -3 14 9 -6 16 -35 22 -47 9z"/>
<path d="M530 170 c0 -5 5 -10 10 -10 6 0 10 -20 10 -45 0 -25 5 -45 10 -45 6
0 10 20 10 45 0 25 5 45 10 45 6 0 10 5 10 10 0 6 -13 10 -30 10 -16 0 -30 -4
-30 -10z"/>
<path d="M600 129 c-7 -27 -9 -53 -5 -57 4 -4 10 -1 12 6 6 16 30 16 36 0 2
-7 7 -10 11 -7 11 10 -15 109 -29 109 -7 0 -18 -22 -25 -51z m30 -4 c0 -8 -4
-15 -10 -15 -5 0 -7 7 -4 15 4 8 8 15 10 15 2 0 4 -7 4 -15z"/>
<path d="M674 167 c-3 -8 -4 -32 -2 -53 3 -34 7 -39 29 -42 17 -2 29 3 32 12
7 18 -8 22 -18 6 -12 -19 -25 1 -25 36 0 36 8 42 29 22 10 -11 12 -9 9 7 -4
24 -46 33 -54 12z"/>
<path d="M750 125 c0 -55 15 -75 23 -32 l4 22 8 -22 c4 -13 14 -23 21 -23 12
0 12 6 -2 32 -13 24 -14 36 -5 50 13 21 14 28 3 28 -5 0 -14 -10 -20 -22 l-11
-23 0 23 c-1 12 -5 22 -11 22 -5 0 -10 -25 -10 -55z"/>
<path d="M322 123 c7 -39 108 -38 108 1 0 12 -6 13 -29 5 -21 -7 -36 -7 -50 0
-27 15 -33 14 -29 -6z"/>
<path d="M320 80 c0 -5 9 -14 21 -21 27 -14 89 -3 89 16 0 11 -6 12 -29 4 -21
-7 -36 -7 -50 0 -24 14 -31 14 -31 1z"/>
</g>
</svg>
